<mxfile host="Electron" agent="Mozilla/5.0 (Windows NT 10.0; Win64; x64) AppleWebKit/537.36 (KHTML, like Gecko) draw.io/28.0.4 Chrome/138.0.7204.97 Electron/37.2.1 Safari/537.36" version="28.0.4">
  <diagram name="Page-1" id="GJuNNniQ4SIRFylEzamD">
    <mxGraphModel dx="2669" dy="1273" grid="0" gridSize="10" guides="1" tooltips="1" connect="1" arrows="1" fold="1" page="0" pageScale="1" pageWidth="850" pageHeight="1100" math="0" shadow="0">
      <root>
        <mxCell id="0" />
        <mxCell id="1" parent="0" />
        <mxCell id="ZlFfbFfvkW0wtay0FuOw-5" value="Sales Orders" style="shape=table;startSize=30;container=1;collapsible=1;childLayout=tableLayout;fixedRows=1;rowLines=0;fontStyle=1;align=center;resizeLast=1;html=1;fontSize=20;rounded=1;fillColor=#647687;fontColor=#ffffff;strokeColor=#314354;" vertex="1" parent="1">
          <mxGeometry x="-420" y="-120" width="307" height="390" as="geometry" />
        </mxCell>
        <mxCell id="ZlFfbFfvkW0wtay0FuOw-6" value="" style="shape=tableRow;horizontal=0;startSize=0;swimlaneHead=0;swimlaneBody=0;fillColor=none;collapsible=0;dropTarget=0;points=[[0,0.5],[1,0.5]];portConstraint=eastwest;top=0;left=0;right=0;bottom=1;fontSize=20;" vertex="1" parent="ZlFfbFfvkW0wtay0FuOw-5">
          <mxGeometry y="30" width="307" height="30" as="geometry" />
        </mxCell>
        <mxCell id="ZlFfbFfvkW0wtay0FuOw-7" value="PK" style="shape=partialRectangle;connectable=0;fillColor=none;top=0;left=0;bottom=0;right=0;fontStyle=1;overflow=hidden;whiteSpace=wrap;html=1;fontSize=20;" vertex="1" parent="ZlFfbFfvkW0wtay0FuOw-6">
          <mxGeometry width="54.642839704241226" height="30" as="geometry">
            <mxRectangle width="54.642839704241226" height="30" as="alternateBounds" />
          </mxGeometry>
        </mxCell>
        <mxCell id="ZlFfbFfvkW0wtay0FuOw-8" value="OrderNumber" style="shape=partialRectangle;connectable=0;fillColor=none;top=0;left=0;bottom=0;right=0;align=left;spacingLeft=6;fontStyle=5;overflow=hidden;whiteSpace=wrap;html=1;fontSize=20;" vertex="1" parent="ZlFfbFfvkW0wtay0FuOw-6">
          <mxGeometry x="54.642839704241226" width="252.35716029575877" height="30" as="geometry">
            <mxRectangle width="252.35716029575877" height="30" as="alternateBounds" />
          </mxGeometry>
        </mxCell>
        <mxCell id="ZlFfbFfvkW0wtay0FuOw-9" value="" style="shape=tableRow;horizontal=0;startSize=0;swimlaneHead=0;swimlaneBody=0;fillColor=none;collapsible=0;dropTarget=0;points=[[0,0.5],[1,0.5]];portConstraint=eastwest;top=0;left=0;right=0;bottom=0;fontSize=20;" vertex="1" parent="ZlFfbFfvkW0wtay0FuOw-5">
          <mxGeometry y="60" width="307" height="30" as="geometry" />
        </mxCell>
        <mxCell id="ZlFfbFfvkW0wtay0FuOw-10" value="" style="shape=partialRectangle;connectable=0;fillColor=none;top=0;left=0;bottom=0;right=0;editable=1;overflow=hidden;whiteSpace=wrap;html=1;fontSize=20;" vertex="1" parent="ZlFfbFfvkW0wtay0FuOw-9">
          <mxGeometry width="54.642839704241226" height="30" as="geometry">
            <mxRectangle width="54.642839704241226" height="30" as="alternateBounds" />
          </mxGeometry>
        </mxCell>
        <mxCell id="ZlFfbFfvkW0wtay0FuOw-11" value="OrderDate" style="shape=partialRectangle;connectable=0;fillColor=none;top=0;left=0;bottom=0;right=0;align=left;spacingLeft=6;overflow=hidden;whiteSpace=wrap;html=1;fontSize=20;" vertex="1" parent="ZlFfbFfvkW0wtay0FuOw-9">
          <mxGeometry x="54.642839704241226" width="252.35716029575877" height="30" as="geometry">
            <mxRectangle width="252.35716029575877" height="30" as="alternateBounds" />
          </mxGeometry>
        </mxCell>
        <mxCell id="ZlFfbFfvkW0wtay0FuOw-12" value="" style="shape=tableRow;horizontal=0;startSize=0;swimlaneHead=0;swimlaneBody=0;fillColor=none;collapsible=0;dropTarget=0;points=[[0,0.5],[1,0.5]];portConstraint=eastwest;top=0;left=0;right=0;bottom=0;fontSize=20;" vertex="1" parent="ZlFfbFfvkW0wtay0FuOw-5">
          <mxGeometry y="90" width="307" height="30" as="geometry" />
        </mxCell>
        <mxCell id="ZlFfbFfvkW0wtay0FuOw-13" value="&lt;b&gt;FK&lt;/b&gt;" style="shape=partialRectangle;connectable=0;fillColor=none;top=0;left=0;bottom=0;right=0;editable=1;overflow=hidden;whiteSpace=wrap;html=1;fontSize=20;" vertex="1" parent="ZlFfbFfvkW0wtay0FuOw-12">
          <mxGeometry width="54.642839704241226" height="30" as="geometry">
            <mxRectangle width="54.642839704241226" height="30" as="alternateBounds" />
          </mxGeometry>
        </mxCell>
        <mxCell id="ZlFfbFfvkW0wtay0FuOw-14" value="Customer Name Index" style="shape=partialRectangle;connectable=0;fillColor=none;top=0;left=0;bottom=0;right=0;align=left;spacingLeft=6;overflow=hidden;whiteSpace=wrap;html=1;fontSize=20;" vertex="1" parent="ZlFfbFfvkW0wtay0FuOw-12">
          <mxGeometry x="54.642839704241226" width="252.35716029575877" height="30" as="geometry">
            <mxRectangle width="252.35716029575877" height="30" as="alternateBounds" />
          </mxGeometry>
        </mxCell>
        <mxCell id="ZlFfbFfvkW0wtay0FuOw-15" value="" style="shape=tableRow;horizontal=0;startSize=0;swimlaneHead=0;swimlaneBody=0;fillColor=none;collapsible=0;dropTarget=0;points=[[0,0.5],[1,0.5]];portConstraint=eastwest;top=0;left=0;right=0;bottom=0;fontSize=20;" vertex="1" parent="ZlFfbFfvkW0wtay0FuOw-5">
          <mxGeometry y="120" width="307" height="30" as="geometry" />
        </mxCell>
        <mxCell id="ZlFfbFfvkW0wtay0FuOw-16" value="" style="shape=partialRectangle;connectable=0;fillColor=none;top=0;left=0;bottom=0;right=0;editable=1;overflow=hidden;whiteSpace=wrap;html=1;fontSize=20;" vertex="1" parent="ZlFfbFfvkW0wtay0FuOw-15">
          <mxGeometry width="54.642839704241226" height="30" as="geometry">
            <mxRectangle width="54.642839704241226" height="30" as="alternateBounds" />
          </mxGeometry>
        </mxCell>
        <mxCell id="ZlFfbFfvkW0wtay0FuOw-17" value="Channel" style="shape=partialRectangle;connectable=0;fillColor=none;top=0;left=0;bottom=0;right=0;align=left;spacingLeft=6;overflow=hidden;whiteSpace=wrap;html=1;fontSize=20;" vertex="1" parent="ZlFfbFfvkW0wtay0FuOw-15">
          <mxGeometry x="54.642839704241226" width="252.35716029575877" height="30" as="geometry">
            <mxRectangle width="252.35716029575877" height="30" as="alternateBounds" />
          </mxGeometry>
        </mxCell>
        <mxCell id="ZlFfbFfvkW0wtay0FuOw-44" value="" style="shape=tableRow;horizontal=0;startSize=0;swimlaneHead=0;swimlaneBody=0;fillColor=none;collapsible=0;dropTarget=0;points=[[0,0.5],[1,0.5]];portConstraint=eastwest;top=0;left=0;right=0;bottom=0;fontSize=20;" vertex="1" parent="ZlFfbFfvkW0wtay0FuOw-5">
          <mxGeometry y="150" width="307" height="30" as="geometry" />
        </mxCell>
        <mxCell id="ZlFfbFfvkW0wtay0FuOw-45" value="&lt;br&gt;&lt;br&gt;&lt;div&gt;&lt;br/&gt;&lt;/div&gt;" style="shape=partialRectangle;connectable=0;fillColor=none;top=0;left=0;bottom=0;right=0;editable=1;overflow=hidden;whiteSpace=wrap;html=1;fontSize=20;" vertex="1" parent="ZlFfbFfvkW0wtay0FuOw-44">
          <mxGeometry width="54.642839704241226" height="30" as="geometry">
            <mxRectangle width="54.642839704241226" height="30" as="alternateBounds" />
          </mxGeometry>
        </mxCell>
        <mxCell id="ZlFfbFfvkW0wtay0FuOw-46" value="Currency Code" style="shape=partialRectangle;connectable=0;fillColor=none;top=0;left=0;bottom=0;right=0;align=left;spacingLeft=6;overflow=hidden;whiteSpace=wrap;html=1;fontSize=20;" vertex="1" parent="ZlFfbFfvkW0wtay0FuOw-44">
          <mxGeometry x="54.642839704241226" width="252.35716029575877" height="30" as="geometry">
            <mxRectangle width="252.35716029575877" height="30" as="alternateBounds" />
          </mxGeometry>
        </mxCell>
        <mxCell id="ZlFfbFfvkW0wtay0FuOw-47" value="" style="shape=tableRow;horizontal=0;startSize=0;swimlaneHead=0;swimlaneBody=0;fillColor=none;collapsible=0;dropTarget=0;points=[[0,0.5],[1,0.5]];portConstraint=eastwest;top=0;left=0;right=0;bottom=0;fontSize=20;" vertex="1" parent="ZlFfbFfvkW0wtay0FuOw-5">
          <mxGeometry y="180" width="307" height="30" as="geometry" />
        </mxCell>
        <mxCell id="ZlFfbFfvkW0wtay0FuOw-48" value="&lt;br&gt;&lt;br&gt;&lt;div&gt;&lt;br/&gt;&lt;/div&gt;" style="shape=partialRectangle;connectable=0;fillColor=none;top=0;left=0;bottom=0;right=0;editable=1;overflow=hidden;whiteSpace=wrap;html=1;fontSize=20;" vertex="1" parent="ZlFfbFfvkW0wtay0FuOw-47">
          <mxGeometry width="54.642839704241226" height="30" as="geometry">
            <mxRectangle width="54.642839704241226" height="30" as="alternateBounds" />
          </mxGeometry>
        </mxCell>
        <mxCell id="ZlFfbFfvkW0wtay0FuOw-49" value="Warehouse Code" style="shape=partialRectangle;connectable=0;fillColor=none;top=0;left=0;bottom=0;right=0;align=left;spacingLeft=6;overflow=hidden;whiteSpace=wrap;html=1;fontSize=20;" vertex="1" parent="ZlFfbFfvkW0wtay0FuOw-47">
          <mxGeometry x="54.642839704241226" width="252.35716029575877" height="30" as="geometry">
            <mxRectangle width="252.35716029575877" height="30" as="alternateBounds" />
          </mxGeometry>
        </mxCell>
        <mxCell id="ZlFfbFfvkW0wtay0FuOw-50" value="" style="shape=tableRow;horizontal=0;startSize=0;swimlaneHead=0;swimlaneBody=0;fillColor=none;collapsible=0;dropTarget=0;points=[[0,0.5],[1,0.5]];portConstraint=eastwest;top=0;left=0;right=0;bottom=0;fontSize=20;" vertex="1" parent="ZlFfbFfvkW0wtay0FuOw-5">
          <mxGeometry y="210" width="307" height="30" as="geometry" />
        </mxCell>
        <mxCell id="ZlFfbFfvkW0wtay0FuOw-51" value="&lt;b&gt;FK&lt;/b&gt;" style="shape=partialRectangle;connectable=0;fillColor=none;top=0;left=0;bottom=0;right=0;editable=1;overflow=hidden;whiteSpace=wrap;html=1;fontSize=20;" vertex="1" parent="ZlFfbFfvkW0wtay0FuOw-50">
          <mxGeometry width="54.642839704241226" height="30" as="geometry">
            <mxRectangle width="54.642839704241226" height="30" as="alternateBounds" />
          </mxGeometry>
        </mxCell>
        <mxCell id="ZlFfbFfvkW0wtay0FuOw-52" value="Delivery Region Index" style="shape=partialRectangle;connectable=0;fillColor=none;top=0;left=0;bottom=0;right=0;align=left;spacingLeft=6;overflow=hidden;whiteSpace=wrap;html=1;fontSize=20;" vertex="1" parent="ZlFfbFfvkW0wtay0FuOw-50">
          <mxGeometry x="54.642839704241226" width="252.35716029575877" height="30" as="geometry">
            <mxRectangle width="252.35716029575877" height="30" as="alternateBounds" />
          </mxGeometry>
        </mxCell>
        <mxCell id="ZlFfbFfvkW0wtay0FuOw-53" value="" style="shape=tableRow;horizontal=0;startSize=0;swimlaneHead=0;swimlaneBody=0;fillColor=none;collapsible=0;dropTarget=0;points=[[0,0.5],[1,0.5]];portConstraint=eastwest;top=0;left=0;right=0;bottom=0;fontSize=20;" vertex="1" parent="ZlFfbFfvkW0wtay0FuOw-5">
          <mxGeometry y="240" width="307" height="30" as="geometry" />
        </mxCell>
        <mxCell id="ZlFfbFfvkW0wtay0FuOw-54" value="&lt;div&gt;&lt;b&gt;FK&lt;/b&gt;&lt;/div&gt;" style="shape=partialRectangle;connectable=0;fillColor=none;top=0;left=0;bottom=0;right=0;editable=1;overflow=hidden;whiteSpace=wrap;html=1;fontSize=20;" vertex="1" parent="ZlFfbFfvkW0wtay0FuOw-53">
          <mxGeometry width="54.642839704241226" height="30" as="geometry">
            <mxRectangle width="54.642839704241226" height="30" as="alternateBounds" />
          </mxGeometry>
        </mxCell>
        <mxCell id="ZlFfbFfvkW0wtay0FuOw-55" value="Product Description Index" style="shape=partialRectangle;connectable=0;fillColor=none;top=0;left=0;bottom=0;right=0;align=left;spacingLeft=6;overflow=hidden;whiteSpace=wrap;html=1;fontSize=20;" vertex="1" parent="ZlFfbFfvkW0wtay0FuOw-53">
          <mxGeometry x="54.642839704241226" width="252.35716029575877" height="30" as="geometry">
            <mxRectangle width="252.35716029575877" height="30" as="alternateBounds" />
          </mxGeometry>
        </mxCell>
        <mxCell id="ZlFfbFfvkW0wtay0FuOw-56" value="" style="shape=tableRow;horizontal=0;startSize=0;swimlaneHead=0;swimlaneBody=0;fillColor=none;collapsible=0;dropTarget=0;points=[[0,0.5],[1,0.5]];portConstraint=eastwest;top=0;left=0;right=0;bottom=0;fontSize=20;" vertex="1" parent="ZlFfbFfvkW0wtay0FuOw-5">
          <mxGeometry y="270" width="307" height="30" as="geometry" />
        </mxCell>
        <mxCell id="ZlFfbFfvkW0wtay0FuOw-57" value="&lt;div&gt;&lt;br/&gt;&lt;/div&gt;" style="shape=partialRectangle;connectable=0;fillColor=none;top=0;left=0;bottom=0;right=0;editable=1;overflow=hidden;whiteSpace=wrap;html=1;fontSize=20;" vertex="1" parent="ZlFfbFfvkW0wtay0FuOw-56">
          <mxGeometry width="54.642839704241226" height="30" as="geometry">
            <mxRectangle width="54.642839704241226" height="30" as="alternateBounds" />
          </mxGeometry>
        </mxCell>
        <mxCell id="ZlFfbFfvkW0wtay0FuOw-58" value="Order Quantity" style="shape=partialRectangle;connectable=0;fillColor=none;top=0;left=0;bottom=0;right=0;align=left;spacingLeft=6;overflow=hidden;whiteSpace=wrap;html=1;fontSize=20;" vertex="1" parent="ZlFfbFfvkW0wtay0FuOw-56">
          <mxGeometry x="54.642839704241226" width="252.35716029575877" height="30" as="geometry">
            <mxRectangle width="252.35716029575877" height="30" as="alternateBounds" />
          </mxGeometry>
        </mxCell>
        <mxCell id="ZlFfbFfvkW0wtay0FuOw-59" value="" style="shape=tableRow;horizontal=0;startSize=0;swimlaneHead=0;swimlaneBody=0;fillColor=none;collapsible=0;dropTarget=0;points=[[0,0.5],[1,0.5]];portConstraint=eastwest;top=0;left=0;right=0;bottom=0;fontSize=20;" vertex="1" parent="ZlFfbFfvkW0wtay0FuOw-5">
          <mxGeometry y="300" width="307" height="30" as="geometry" />
        </mxCell>
        <mxCell id="ZlFfbFfvkW0wtay0FuOw-60" value="&lt;div&gt;&lt;br/&gt;&lt;/div&gt;" style="shape=partialRectangle;connectable=0;fillColor=none;top=0;left=0;bottom=0;right=0;editable=1;overflow=hidden;whiteSpace=wrap;html=1;fontSize=20;" vertex="1" parent="ZlFfbFfvkW0wtay0FuOw-59">
          <mxGeometry width="54.642839704241226" height="30" as="geometry">
            <mxRectangle width="54.642839704241226" height="30" as="alternateBounds" />
          </mxGeometry>
        </mxCell>
        <mxCell id="ZlFfbFfvkW0wtay0FuOw-61" value="Unit Price" style="shape=partialRectangle;connectable=0;fillColor=none;top=0;left=0;bottom=0;right=0;align=left;spacingLeft=6;overflow=hidden;whiteSpace=wrap;html=1;fontSize=20;" vertex="1" parent="ZlFfbFfvkW0wtay0FuOw-59">
          <mxGeometry x="54.642839704241226" width="252.35716029575877" height="30" as="geometry">
            <mxRectangle width="252.35716029575877" height="30" as="alternateBounds" />
          </mxGeometry>
        </mxCell>
        <mxCell id="ZlFfbFfvkW0wtay0FuOw-62" value="" style="shape=tableRow;horizontal=0;startSize=0;swimlaneHead=0;swimlaneBody=0;fillColor=none;collapsible=0;dropTarget=0;points=[[0,0.5],[1,0.5]];portConstraint=eastwest;top=0;left=0;right=0;bottom=0;fontSize=20;" vertex="1" parent="ZlFfbFfvkW0wtay0FuOw-5">
          <mxGeometry y="330" width="307" height="30" as="geometry" />
        </mxCell>
        <mxCell id="ZlFfbFfvkW0wtay0FuOw-63" value="&lt;div&gt;&lt;br/&gt;&lt;/div&gt;" style="shape=partialRectangle;connectable=0;fillColor=none;top=0;left=0;bottom=0;right=0;editable=1;overflow=hidden;whiteSpace=wrap;html=1;fontSize=20;" vertex="1" parent="ZlFfbFfvkW0wtay0FuOw-62">
          <mxGeometry width="54.642839704241226" height="30" as="geometry">
            <mxRectangle width="54.642839704241226" height="30" as="alternateBounds" />
          </mxGeometry>
        </mxCell>
        <mxCell id="ZlFfbFfvkW0wtay0FuOw-64" value="Line Total" style="shape=partialRectangle;connectable=0;fillColor=none;top=0;left=0;bottom=0;right=0;align=left;spacingLeft=6;overflow=hidden;whiteSpace=wrap;html=1;fontSize=20;" vertex="1" parent="ZlFfbFfvkW0wtay0FuOw-62">
          <mxGeometry x="54.642839704241226" width="252.35716029575877" height="30" as="geometry">
            <mxRectangle width="252.35716029575877" height="30" as="alternateBounds" />
          </mxGeometry>
        </mxCell>
        <mxCell id="ZlFfbFfvkW0wtay0FuOw-65" value="" style="shape=tableRow;horizontal=0;startSize=0;swimlaneHead=0;swimlaneBody=0;fillColor=none;collapsible=0;dropTarget=0;points=[[0,0.5],[1,0.5]];portConstraint=eastwest;top=0;left=0;right=0;bottom=0;fontSize=20;" vertex="1" parent="ZlFfbFfvkW0wtay0FuOw-5">
          <mxGeometry y="360" width="307" height="30" as="geometry" />
        </mxCell>
        <mxCell id="ZlFfbFfvkW0wtay0FuOw-66" value="&lt;div&gt;&lt;br/&gt;&lt;/div&gt;" style="shape=partialRectangle;connectable=0;fillColor=none;top=0;left=0;bottom=0;right=0;editable=1;overflow=hidden;whiteSpace=wrap;html=1;fontSize=20;" vertex="1" parent="ZlFfbFfvkW0wtay0FuOw-65">
          <mxGeometry width="54.642839704241226" height="30" as="geometry">
            <mxRectangle width="54.642839704241226" height="30" as="alternateBounds" />
          </mxGeometry>
        </mxCell>
        <mxCell id="ZlFfbFfvkW0wtay0FuOw-67" value="Total Unit Cost" style="shape=partialRectangle;connectable=0;fillColor=none;top=0;left=0;bottom=0;right=0;align=left;spacingLeft=6;overflow=hidden;whiteSpace=wrap;html=1;fontSize=20;" vertex="1" parent="ZlFfbFfvkW0wtay0FuOw-65">
          <mxGeometry x="54.642839704241226" width="252.35716029575877" height="30" as="geometry">
            <mxRectangle width="252.35716029575877" height="30" as="alternateBounds" />
          </mxGeometry>
        </mxCell>
        <mxCell id="ZlFfbFfvkW0wtay0FuOw-68" value="Customers" style="shape=table;startSize=30;container=1;collapsible=1;childLayout=tableLayout;fixedRows=1;rowLines=0;fontStyle=1;align=center;resizeLast=1;html=1;fontSize=20;rounded=1;fillColor=#6d8764;fontColor=#ffffff;strokeColor=#3A5431;" vertex="1" parent="1">
          <mxGeometry x="42.5" y="-118" width="228" height="90" as="geometry" />
        </mxCell>
        <mxCell id="ZlFfbFfvkW0wtay0FuOw-69" value="" style="shape=tableRow;horizontal=0;startSize=0;swimlaneHead=0;swimlaneBody=0;fillColor=none;collapsible=0;dropTarget=0;points=[[0,0.5],[1,0.5]];portConstraint=eastwest;top=0;left=0;right=0;bottom=1;fontSize=20;" vertex="1" parent="ZlFfbFfvkW0wtay0FuOw-68">
          <mxGeometry y="30" width="228" height="30" as="geometry" />
        </mxCell>
        <mxCell id="ZlFfbFfvkW0wtay0FuOw-70" value="PK" style="shape=partialRectangle;connectable=0;fillColor=none;top=0;left=0;bottom=0;right=0;fontStyle=1;overflow=hidden;whiteSpace=wrap;html=1;fontSize=20;" vertex="1" parent="ZlFfbFfvkW0wtay0FuOw-69">
          <mxGeometry width="40" height="30" as="geometry">
            <mxRectangle width="40" height="30" as="alternateBounds" />
          </mxGeometry>
        </mxCell>
        <mxCell id="ZlFfbFfvkW0wtay0FuOw-71" value="Customer Index" style="shape=partialRectangle;connectable=0;fillColor=none;top=0;left=0;bottom=0;right=0;align=left;spacingLeft=6;fontStyle=5;overflow=hidden;whiteSpace=wrap;html=1;fontSize=20;" vertex="1" parent="ZlFfbFfvkW0wtay0FuOw-69">
          <mxGeometry x="40" width="188" height="30" as="geometry">
            <mxRectangle width="188" height="30" as="alternateBounds" />
          </mxGeometry>
        </mxCell>
        <mxCell id="ZlFfbFfvkW0wtay0FuOw-72" value="" style="shape=tableRow;horizontal=0;startSize=0;swimlaneHead=0;swimlaneBody=0;fillColor=none;collapsible=0;dropTarget=0;points=[[0,0.5],[1,0.5]];portConstraint=eastwest;top=0;left=0;right=0;bottom=0;fontSize=20;" vertex="1" parent="ZlFfbFfvkW0wtay0FuOw-68">
          <mxGeometry y="60" width="228" height="30" as="geometry" />
        </mxCell>
        <mxCell id="ZlFfbFfvkW0wtay0FuOw-73" value="" style="shape=partialRectangle;connectable=0;fillColor=none;top=0;left=0;bottom=0;right=0;editable=1;overflow=hidden;whiteSpace=wrap;html=1;fontSize=20;" vertex="1" parent="ZlFfbFfvkW0wtay0FuOw-72">
          <mxGeometry width="40" height="30" as="geometry">
            <mxRectangle width="40" height="30" as="alternateBounds" />
          </mxGeometry>
        </mxCell>
        <mxCell id="ZlFfbFfvkW0wtay0FuOw-74" value="Customer Names" style="shape=partialRectangle;connectable=0;fillColor=none;top=0;left=0;bottom=0;right=0;align=left;spacingLeft=6;overflow=hidden;whiteSpace=wrap;html=1;fontSize=20;" vertex="1" parent="ZlFfbFfvkW0wtay0FuOw-72">
          <mxGeometry x="40" width="188" height="30" as="geometry">
            <mxRectangle width="188" height="30" as="alternateBounds" />
          </mxGeometry>
        </mxCell>
        <mxCell id="ZlFfbFfvkW0wtay0FuOw-114" value="Regions" style="shape=table;startSize=30;container=1;collapsible=1;childLayout=tableLayout;fixedRows=1;rowLines=0;fontStyle=1;align=center;resizeLast=1;html=1;fontSize=20;rounded=1;fillColor=#6d8764;fontColor=#ffffff;strokeColor=#3A5431;" vertex="1" parent="1">
          <mxGeometry x="55" y="118" width="203" height="480" as="geometry" />
        </mxCell>
        <mxCell id="ZlFfbFfvkW0wtay0FuOw-115" value="" style="shape=tableRow;horizontal=0;startSize=0;swimlaneHead=0;swimlaneBody=0;fillColor=none;collapsible=0;dropTarget=0;points=[[0,0.5],[1,0.5]];portConstraint=eastwest;top=0;left=0;right=0;bottom=1;fontSize=20;" vertex="1" parent="ZlFfbFfvkW0wtay0FuOw-114">
          <mxGeometry y="30" width="203" height="30" as="geometry" />
        </mxCell>
        <mxCell id="ZlFfbFfvkW0wtay0FuOw-116" value="PK" style="shape=partialRectangle;connectable=0;fillColor=none;top=0;left=0;bottom=0;right=0;fontStyle=1;overflow=hidden;whiteSpace=wrap;html=1;fontSize=20;" vertex="1" parent="ZlFfbFfvkW0wtay0FuOw-115">
          <mxGeometry width="40" height="30" as="geometry">
            <mxRectangle width="40" height="30" as="alternateBounds" />
          </mxGeometry>
        </mxCell>
        <mxCell id="ZlFfbFfvkW0wtay0FuOw-117" value="id" style="shape=partialRectangle;connectable=0;fillColor=none;top=0;left=0;bottom=0;right=0;align=left;spacingLeft=6;fontStyle=5;overflow=hidden;whiteSpace=wrap;html=1;fontSize=20;" vertex="1" parent="ZlFfbFfvkW0wtay0FuOw-115">
          <mxGeometry x="40" width="163" height="30" as="geometry">
            <mxRectangle width="163" height="30" as="alternateBounds" />
          </mxGeometry>
        </mxCell>
        <mxCell id="ZlFfbFfvkW0wtay0FuOw-118" value="" style="shape=tableRow;horizontal=0;startSize=0;swimlaneHead=0;swimlaneBody=0;fillColor=none;collapsible=0;dropTarget=0;points=[[0,0.5],[1,0.5]];portConstraint=eastwest;top=0;left=0;right=0;bottom=0;fontSize=20;" vertex="1" parent="ZlFfbFfvkW0wtay0FuOw-114">
          <mxGeometry y="60" width="203" height="30" as="geometry" />
        </mxCell>
        <mxCell id="ZlFfbFfvkW0wtay0FuOw-119" value="" style="shape=partialRectangle;connectable=0;fillColor=none;top=0;left=0;bottom=0;right=0;editable=1;overflow=hidden;whiteSpace=wrap;html=1;fontSize=20;" vertex="1" parent="ZlFfbFfvkW0wtay0FuOw-118">
          <mxGeometry width="40" height="30" as="geometry">
            <mxRectangle width="40" height="30" as="alternateBounds" />
          </mxGeometry>
        </mxCell>
        <mxCell id="ZlFfbFfvkW0wtay0FuOw-120" value="name" style="shape=partialRectangle;connectable=0;fillColor=none;top=0;left=0;bottom=0;right=0;align=left;spacingLeft=6;overflow=hidden;whiteSpace=wrap;html=1;fontSize=20;" vertex="1" parent="ZlFfbFfvkW0wtay0FuOw-118">
          <mxGeometry x="40" width="163" height="30" as="geometry">
            <mxRectangle width="163" height="30" as="alternateBounds" />
          </mxGeometry>
        </mxCell>
        <mxCell id="ZlFfbFfvkW0wtay0FuOw-121" value="" style="shape=tableRow;horizontal=0;startSize=0;swimlaneHead=0;swimlaneBody=0;fillColor=none;collapsible=0;dropTarget=0;points=[[0,0.5],[1,0.5]];portConstraint=eastwest;top=0;left=0;right=0;bottom=0;fontSize=20;" vertex="1" parent="ZlFfbFfvkW0wtay0FuOw-114">
          <mxGeometry y="90" width="203" height="30" as="geometry" />
        </mxCell>
        <mxCell id="ZlFfbFfvkW0wtay0FuOw-122" value="" style="shape=partialRectangle;connectable=0;fillColor=none;top=0;left=0;bottom=0;right=0;editable=1;overflow=hidden;whiteSpace=wrap;html=1;fontSize=20;" vertex="1" parent="ZlFfbFfvkW0wtay0FuOw-121">
          <mxGeometry width="40" height="30" as="geometry">
            <mxRectangle width="40" height="30" as="alternateBounds" />
          </mxGeometry>
        </mxCell>
        <mxCell id="ZlFfbFfvkW0wtay0FuOw-123" value="country" style="shape=partialRectangle;connectable=0;fillColor=none;top=0;left=0;bottom=0;right=0;align=left;spacingLeft=6;overflow=hidden;whiteSpace=wrap;html=1;fontSize=20;" vertex="1" parent="ZlFfbFfvkW0wtay0FuOw-121">
          <mxGeometry x="40" width="163" height="30" as="geometry">
            <mxRectangle width="163" height="30" as="alternateBounds" />
          </mxGeometry>
        </mxCell>
        <mxCell id="ZlFfbFfvkW0wtay0FuOw-124" value="" style="shape=tableRow;horizontal=0;startSize=0;swimlaneHead=0;swimlaneBody=0;fillColor=none;collapsible=0;dropTarget=0;points=[[0,0.5],[1,0.5]];portConstraint=eastwest;top=0;left=0;right=0;bottom=0;fontSize=20;" vertex="1" parent="ZlFfbFfvkW0wtay0FuOw-114">
          <mxGeometry y="120" width="203" height="30" as="geometry" />
        </mxCell>
        <mxCell id="ZlFfbFfvkW0wtay0FuOw-125" value="FK" style="shape=partialRectangle;connectable=0;fillColor=none;top=0;left=0;bottom=0;right=0;editable=1;overflow=hidden;whiteSpace=wrap;html=1;fontSize=20;fontStyle=1" vertex="1" parent="ZlFfbFfvkW0wtay0FuOw-124">
          <mxGeometry width="40" height="30" as="geometry">
            <mxRectangle width="40" height="30" as="alternateBounds" />
          </mxGeometry>
        </mxCell>
        <mxCell id="ZlFfbFfvkW0wtay0FuOw-126" value="state_code" style="shape=partialRectangle;connectable=0;fillColor=none;top=0;left=0;bottom=0;right=0;align=left;spacingLeft=6;overflow=hidden;whiteSpace=wrap;html=1;fontSize=20;" vertex="1" parent="ZlFfbFfvkW0wtay0FuOw-124">
          <mxGeometry x="40" width="163" height="30" as="geometry">
            <mxRectangle width="163" height="30" as="alternateBounds" />
          </mxGeometry>
        </mxCell>
        <mxCell id="ZlFfbFfvkW0wtay0FuOw-127" value="" style="shape=tableRow;horizontal=0;startSize=0;swimlaneHead=0;swimlaneBody=0;fillColor=none;collapsible=0;dropTarget=0;points=[[0,0.5],[1,0.5]];portConstraint=eastwest;top=0;left=0;right=0;bottom=0;fontSize=20;" vertex="1" parent="ZlFfbFfvkW0wtay0FuOw-114">
          <mxGeometry y="150" width="203" height="30" as="geometry" />
        </mxCell>
        <mxCell id="ZlFfbFfvkW0wtay0FuOw-128" value="&lt;br&gt;&lt;br&gt;&lt;div&gt;&lt;br/&gt;&lt;/div&gt;" style="shape=partialRectangle;connectable=0;fillColor=none;top=0;left=0;bottom=0;right=0;editable=1;overflow=hidden;whiteSpace=wrap;html=1;fontSize=20;" vertex="1" parent="ZlFfbFfvkW0wtay0FuOw-127">
          <mxGeometry width="40" height="30" as="geometry">
            <mxRectangle width="40" height="30" as="alternateBounds" />
          </mxGeometry>
        </mxCell>
        <mxCell id="ZlFfbFfvkW0wtay0FuOw-129" value="state" style="shape=partialRectangle;connectable=0;fillColor=none;top=0;left=0;bottom=0;right=0;align=left;spacingLeft=6;overflow=hidden;whiteSpace=wrap;html=1;fontSize=20;" vertex="1" parent="ZlFfbFfvkW0wtay0FuOw-127">
          <mxGeometry x="40" width="163" height="30" as="geometry">
            <mxRectangle width="163" height="30" as="alternateBounds" />
          </mxGeometry>
        </mxCell>
        <mxCell id="ZlFfbFfvkW0wtay0FuOw-130" value="" style="shape=tableRow;horizontal=0;startSize=0;swimlaneHead=0;swimlaneBody=0;fillColor=none;collapsible=0;dropTarget=0;points=[[0,0.5],[1,0.5]];portConstraint=eastwest;top=0;left=0;right=0;bottom=0;fontSize=20;" vertex="1" parent="ZlFfbFfvkW0wtay0FuOw-114">
          <mxGeometry y="180" width="203" height="30" as="geometry" />
        </mxCell>
        <mxCell id="ZlFfbFfvkW0wtay0FuOw-131" value="&lt;br&gt;&lt;br&gt;&lt;div&gt;&lt;br/&gt;&lt;/div&gt;" style="shape=partialRectangle;connectable=0;fillColor=none;top=0;left=0;bottom=0;right=0;editable=1;overflow=hidden;whiteSpace=wrap;html=1;fontSize=20;" vertex="1" parent="ZlFfbFfvkW0wtay0FuOw-130">
          <mxGeometry width="40" height="30" as="geometry">
            <mxRectangle width="40" height="30" as="alternateBounds" />
          </mxGeometry>
        </mxCell>
        <mxCell id="ZlFfbFfvkW0wtay0FuOw-132" value="type" style="shape=partialRectangle;connectable=0;fillColor=none;top=0;left=0;bottom=0;right=0;align=left;spacingLeft=6;overflow=hidden;whiteSpace=wrap;html=1;fontSize=20;" vertex="1" parent="ZlFfbFfvkW0wtay0FuOw-130">
          <mxGeometry x="40" width="163" height="30" as="geometry">
            <mxRectangle width="163" height="30" as="alternateBounds" />
          </mxGeometry>
        </mxCell>
        <mxCell id="ZlFfbFfvkW0wtay0FuOw-133" value="" style="shape=tableRow;horizontal=0;startSize=0;swimlaneHead=0;swimlaneBody=0;fillColor=none;collapsible=0;dropTarget=0;points=[[0,0.5],[1,0.5]];portConstraint=eastwest;top=0;left=0;right=0;bottom=0;fontSize=20;" vertex="1" parent="ZlFfbFfvkW0wtay0FuOw-114">
          <mxGeometry y="210" width="203" height="30" as="geometry" />
        </mxCell>
        <mxCell id="ZlFfbFfvkW0wtay0FuOw-134" value="&lt;br&gt;&lt;br&gt;&lt;div&gt;&lt;br/&gt;&lt;/div&gt;" style="shape=partialRectangle;connectable=0;fillColor=none;top=0;left=0;bottom=0;right=0;editable=1;overflow=hidden;whiteSpace=wrap;html=1;fontSize=20;" vertex="1" parent="ZlFfbFfvkW0wtay0FuOw-133">
          <mxGeometry width="40" height="30" as="geometry">
            <mxRectangle width="40" height="30" as="alternateBounds" />
          </mxGeometry>
        </mxCell>
        <mxCell id="ZlFfbFfvkW0wtay0FuOw-135" value="latitude" style="shape=partialRectangle;connectable=0;fillColor=none;top=0;left=0;bottom=0;right=0;align=left;spacingLeft=6;overflow=hidden;whiteSpace=wrap;html=1;fontSize=20;" vertex="1" parent="ZlFfbFfvkW0wtay0FuOw-133">
          <mxGeometry x="40" width="163" height="30" as="geometry">
            <mxRectangle width="163" height="30" as="alternateBounds" />
          </mxGeometry>
        </mxCell>
        <mxCell id="ZlFfbFfvkW0wtay0FuOw-136" value="" style="shape=tableRow;horizontal=0;startSize=0;swimlaneHead=0;swimlaneBody=0;fillColor=none;collapsible=0;dropTarget=0;points=[[0,0.5],[1,0.5]];portConstraint=eastwest;top=0;left=0;right=0;bottom=0;fontSize=20;" vertex="1" parent="ZlFfbFfvkW0wtay0FuOw-114">
          <mxGeometry y="240" width="203" height="30" as="geometry" />
        </mxCell>
        <mxCell id="ZlFfbFfvkW0wtay0FuOw-137" value="&lt;br&gt;&lt;br&gt;&lt;div&gt;&lt;br/&gt;&lt;/div&gt;" style="shape=partialRectangle;connectable=0;fillColor=none;top=0;left=0;bottom=0;right=0;editable=1;overflow=hidden;whiteSpace=wrap;html=1;fontSize=20;" vertex="1" parent="ZlFfbFfvkW0wtay0FuOw-136">
          <mxGeometry width="40" height="30" as="geometry">
            <mxRectangle width="40" height="30" as="alternateBounds" />
          </mxGeometry>
        </mxCell>
        <mxCell id="ZlFfbFfvkW0wtay0FuOw-138" value="longitude" style="shape=partialRectangle;connectable=0;fillColor=none;top=0;left=0;bottom=0;right=0;align=left;spacingLeft=6;overflow=hidden;whiteSpace=wrap;html=1;fontSize=20;" vertex="1" parent="ZlFfbFfvkW0wtay0FuOw-136">
          <mxGeometry x="40" width="163" height="30" as="geometry">
            <mxRectangle width="163" height="30" as="alternateBounds" />
          </mxGeometry>
        </mxCell>
        <mxCell id="ZlFfbFfvkW0wtay0FuOw-139" value="" style="shape=tableRow;horizontal=0;startSize=0;swimlaneHead=0;swimlaneBody=0;fillColor=none;collapsible=0;dropTarget=0;points=[[0,0.5],[1,0.5]];portConstraint=eastwest;top=0;left=0;right=0;bottom=0;fontSize=20;" vertex="1" parent="ZlFfbFfvkW0wtay0FuOw-114">
          <mxGeometry y="270" width="203" height="30" as="geometry" />
        </mxCell>
        <mxCell id="ZlFfbFfvkW0wtay0FuOw-140" value="&lt;div&gt;&lt;br/&gt;&lt;/div&gt;" style="shape=partialRectangle;connectable=0;fillColor=none;top=0;left=0;bottom=0;right=0;editable=1;overflow=hidden;whiteSpace=wrap;html=1;fontSize=20;" vertex="1" parent="ZlFfbFfvkW0wtay0FuOw-139">
          <mxGeometry width="40" height="30" as="geometry">
            <mxRectangle width="40" height="30" as="alternateBounds" />
          </mxGeometry>
        </mxCell>
        <mxCell id="ZlFfbFfvkW0wtay0FuOw-141" value="area_code" style="shape=partialRectangle;connectable=0;fillColor=none;top=0;left=0;bottom=0;right=0;align=left;spacingLeft=6;overflow=hidden;whiteSpace=wrap;html=1;fontSize=20;" vertex="1" parent="ZlFfbFfvkW0wtay0FuOw-139">
          <mxGeometry x="40" width="163" height="30" as="geometry">
            <mxRectangle width="163" height="30" as="alternateBounds" />
          </mxGeometry>
        </mxCell>
        <mxCell id="ZlFfbFfvkW0wtay0FuOw-142" value="" style="shape=tableRow;horizontal=0;startSize=0;swimlaneHead=0;swimlaneBody=0;fillColor=none;collapsible=0;dropTarget=0;points=[[0,0.5],[1,0.5]];portConstraint=eastwest;top=0;left=0;right=0;bottom=0;fontSize=20;" vertex="1" parent="ZlFfbFfvkW0wtay0FuOw-114">
          <mxGeometry y="300" width="203" height="30" as="geometry" />
        </mxCell>
        <mxCell id="ZlFfbFfvkW0wtay0FuOw-143" value="&lt;div&gt;&lt;br/&gt;&lt;/div&gt;" style="shape=partialRectangle;connectable=0;fillColor=none;top=0;left=0;bottom=0;right=0;editable=1;overflow=hidden;whiteSpace=wrap;html=1;fontSize=20;" vertex="1" parent="ZlFfbFfvkW0wtay0FuOw-142">
          <mxGeometry width="40" height="30" as="geometry">
            <mxRectangle width="40" height="30" as="alternateBounds" />
          </mxGeometry>
        </mxCell>
        <mxCell id="ZlFfbFfvkW0wtay0FuOw-144" value="population" style="shape=partialRectangle;connectable=0;fillColor=none;top=0;left=0;bottom=0;right=0;align=left;spacingLeft=6;overflow=hidden;whiteSpace=wrap;html=1;fontSize=20;" vertex="1" parent="ZlFfbFfvkW0wtay0FuOw-142">
          <mxGeometry x="40" width="163" height="30" as="geometry">
            <mxRectangle width="163" height="30" as="alternateBounds" />
          </mxGeometry>
        </mxCell>
        <mxCell id="ZlFfbFfvkW0wtay0FuOw-145" value="" style="shape=tableRow;horizontal=0;startSize=0;swimlaneHead=0;swimlaneBody=0;fillColor=none;collapsible=0;dropTarget=0;points=[[0,0.5],[1,0.5]];portConstraint=eastwest;top=0;left=0;right=0;bottom=0;fontSize=20;" vertex="1" parent="ZlFfbFfvkW0wtay0FuOw-114">
          <mxGeometry y="330" width="203" height="30" as="geometry" />
        </mxCell>
        <mxCell id="ZlFfbFfvkW0wtay0FuOw-146" value="&lt;div&gt;&lt;br/&gt;&lt;/div&gt;" style="shape=partialRectangle;connectable=0;fillColor=none;top=0;left=0;bottom=0;right=0;editable=1;overflow=hidden;whiteSpace=wrap;html=1;fontSize=20;" vertex="1" parent="ZlFfbFfvkW0wtay0FuOw-145">
          <mxGeometry width="40" height="30" as="geometry">
            <mxRectangle width="40" height="30" as="alternateBounds" />
          </mxGeometry>
        </mxCell>
        <mxCell id="ZlFfbFfvkW0wtay0FuOw-147" value="households" style="shape=partialRectangle;connectable=0;fillColor=none;top=0;left=0;bottom=0;right=0;align=left;spacingLeft=6;overflow=hidden;whiteSpace=wrap;html=1;fontSize=20;" vertex="1" parent="ZlFfbFfvkW0wtay0FuOw-145">
          <mxGeometry x="40" width="163" height="30" as="geometry">
            <mxRectangle width="163" height="30" as="alternateBounds" />
          </mxGeometry>
        </mxCell>
        <mxCell id="ZlFfbFfvkW0wtay0FuOw-148" value="" style="shape=tableRow;horizontal=0;startSize=0;swimlaneHead=0;swimlaneBody=0;fillColor=none;collapsible=0;dropTarget=0;points=[[0,0.5],[1,0.5]];portConstraint=eastwest;top=0;left=0;right=0;bottom=0;fontSize=20;" vertex="1" parent="ZlFfbFfvkW0wtay0FuOw-114">
          <mxGeometry y="360" width="203" height="30" as="geometry" />
        </mxCell>
        <mxCell id="ZlFfbFfvkW0wtay0FuOw-149" value="&lt;div&gt;&lt;br/&gt;&lt;/div&gt;" style="shape=partialRectangle;connectable=0;fillColor=none;top=0;left=0;bottom=0;right=0;editable=1;overflow=hidden;whiteSpace=wrap;html=1;fontSize=20;" vertex="1" parent="ZlFfbFfvkW0wtay0FuOw-148">
          <mxGeometry width="40" height="30" as="geometry">
            <mxRectangle width="40" height="30" as="alternateBounds" />
          </mxGeometry>
        </mxCell>
        <mxCell id="ZlFfbFfvkW0wtay0FuOw-150" value="median_income" style="shape=partialRectangle;connectable=0;fillColor=none;top=0;left=0;bottom=0;right=0;align=left;spacingLeft=6;overflow=hidden;whiteSpace=wrap;html=1;fontSize=20;" vertex="1" parent="ZlFfbFfvkW0wtay0FuOw-148">
          <mxGeometry x="40" width="163" height="30" as="geometry">
            <mxRectangle width="163" height="30" as="alternateBounds" />
          </mxGeometry>
        </mxCell>
        <mxCell id="ZlFfbFfvkW0wtay0FuOw-151" value="" style="shape=tableRow;horizontal=0;startSize=0;swimlaneHead=0;swimlaneBody=0;fillColor=none;collapsible=0;dropTarget=0;points=[[0,0.5],[1,0.5]];portConstraint=eastwest;top=0;left=0;right=0;bottom=0;fontSize=20;" vertex="1" parent="ZlFfbFfvkW0wtay0FuOw-114">
          <mxGeometry y="390" width="203" height="30" as="geometry" />
        </mxCell>
        <mxCell id="ZlFfbFfvkW0wtay0FuOw-152" value="&lt;div&gt;&lt;br/&gt;&lt;/div&gt;" style="shape=partialRectangle;connectable=0;fillColor=none;top=0;left=0;bottom=0;right=0;editable=1;overflow=hidden;whiteSpace=wrap;html=1;fontSize=20;" vertex="1" parent="ZlFfbFfvkW0wtay0FuOw-151">
          <mxGeometry width="40" height="30" as="geometry">
            <mxRectangle width="40" height="30" as="alternateBounds" />
          </mxGeometry>
        </mxCell>
        <mxCell id="ZlFfbFfvkW0wtay0FuOw-153" value="land_area" style="shape=partialRectangle;connectable=0;fillColor=none;top=0;left=0;bottom=0;right=0;align=left;spacingLeft=6;overflow=hidden;whiteSpace=wrap;html=1;fontSize=20;" vertex="1" parent="ZlFfbFfvkW0wtay0FuOw-151">
          <mxGeometry x="40" width="163" height="30" as="geometry">
            <mxRectangle width="163" height="30" as="alternateBounds" />
          </mxGeometry>
        </mxCell>
        <mxCell id="ZlFfbFfvkW0wtay0FuOw-154" value="" style="shape=tableRow;horizontal=0;startSize=0;swimlaneHead=0;swimlaneBody=0;fillColor=none;collapsible=0;dropTarget=0;points=[[0,0.5],[1,0.5]];portConstraint=eastwest;top=0;left=0;right=0;bottom=0;fontSize=20;" vertex="1" parent="ZlFfbFfvkW0wtay0FuOw-114">
          <mxGeometry y="420" width="203" height="30" as="geometry" />
        </mxCell>
        <mxCell id="ZlFfbFfvkW0wtay0FuOw-155" value="&lt;div&gt;&lt;br/&gt;&lt;/div&gt;" style="shape=partialRectangle;connectable=0;fillColor=none;top=0;left=0;bottom=0;right=0;editable=1;overflow=hidden;whiteSpace=wrap;html=1;fontSize=20;" vertex="1" parent="ZlFfbFfvkW0wtay0FuOw-154">
          <mxGeometry width="40" height="30" as="geometry">
            <mxRectangle width="40" height="30" as="alternateBounds" />
          </mxGeometry>
        </mxCell>
        <mxCell id="ZlFfbFfvkW0wtay0FuOw-156" value="water_area" style="shape=partialRectangle;connectable=0;fillColor=none;top=0;left=0;bottom=0;right=0;align=left;spacingLeft=6;overflow=hidden;whiteSpace=wrap;html=1;fontSize=20;" vertex="1" parent="ZlFfbFfvkW0wtay0FuOw-154">
          <mxGeometry x="40" width="163" height="30" as="geometry">
            <mxRectangle width="163" height="30" as="alternateBounds" />
          </mxGeometry>
        </mxCell>
        <mxCell id="ZlFfbFfvkW0wtay0FuOw-157" value="" style="shape=tableRow;horizontal=0;startSize=0;swimlaneHead=0;swimlaneBody=0;fillColor=none;collapsible=0;dropTarget=0;points=[[0,0.5],[1,0.5]];portConstraint=eastwest;top=0;left=0;right=0;bottom=0;fontSize=20;" vertex="1" parent="ZlFfbFfvkW0wtay0FuOw-114">
          <mxGeometry y="450" width="203" height="30" as="geometry" />
        </mxCell>
        <mxCell id="ZlFfbFfvkW0wtay0FuOw-158" value="&lt;div&gt;&lt;br/&gt;&lt;/div&gt;" style="shape=partialRectangle;connectable=0;fillColor=none;top=0;left=0;bottom=0;right=0;editable=1;overflow=hidden;whiteSpace=wrap;html=1;fontSize=20;" vertex="1" parent="ZlFfbFfvkW0wtay0FuOw-157">
          <mxGeometry width="40" height="30" as="geometry">
            <mxRectangle width="40" height="30" as="alternateBounds" />
          </mxGeometry>
        </mxCell>
        <mxCell id="ZlFfbFfvkW0wtay0FuOw-159" value="time_zone" style="shape=partialRectangle;connectable=0;fillColor=none;top=0;left=0;bottom=0;right=0;align=left;spacingLeft=6;overflow=hidden;whiteSpace=wrap;html=1;fontSize=20;" vertex="1" parent="ZlFfbFfvkW0wtay0FuOw-157">
          <mxGeometry x="40" width="163" height="30" as="geometry">
            <mxRectangle width="163" height="30" as="alternateBounds" />
          </mxGeometry>
        </mxCell>
        <mxCell id="ZlFfbFfvkW0wtay0FuOw-160" value="State Regions" style="shape=table;startSize=30;container=1;collapsible=1;childLayout=tableLayout;fixedRows=1;rowLines=0;fontStyle=1;align=center;resizeLast=1;html=1;fontSize=20;rounded=1;fillColor=#6d8764;fontColor=#ffffff;strokeColor=#3A5431;" vertex="1" parent="1">
          <mxGeometry x="-370.25" y="327" width="207.5" height="120" as="geometry" />
        </mxCell>
        <mxCell id="ZlFfbFfvkW0wtay0FuOw-161" value="" style="shape=tableRow;horizontal=0;startSize=0;swimlaneHead=0;swimlaneBody=0;fillColor=none;collapsible=0;dropTarget=0;points=[[0,0.5],[1,0.5]];portConstraint=eastwest;top=0;left=0;right=0;bottom=1;fontSize=20;" vertex="1" parent="ZlFfbFfvkW0wtay0FuOw-160">
          <mxGeometry y="30" width="207.5" height="30" as="geometry" />
        </mxCell>
        <mxCell id="ZlFfbFfvkW0wtay0FuOw-162" value="PK" style="shape=partialRectangle;connectable=0;fillColor=none;top=0;left=0;bottom=0;right=0;fontStyle=1;overflow=hidden;whiteSpace=wrap;html=1;fontSize=20;" vertex="1" parent="ZlFfbFfvkW0wtay0FuOw-161">
          <mxGeometry width="40" height="30" as="geometry">
            <mxRectangle width="40" height="30" as="alternateBounds" />
          </mxGeometry>
        </mxCell>
        <mxCell id="ZlFfbFfvkW0wtay0FuOw-163" value="State Code" style="shape=partialRectangle;connectable=0;fillColor=none;top=0;left=0;bottom=0;right=0;align=left;spacingLeft=6;fontStyle=5;overflow=hidden;whiteSpace=wrap;html=1;fontSize=20;" vertex="1" parent="ZlFfbFfvkW0wtay0FuOw-161">
          <mxGeometry x="40" width="167.5" height="30" as="geometry">
            <mxRectangle width="167.5" height="30" as="alternateBounds" />
          </mxGeometry>
        </mxCell>
        <mxCell id="ZlFfbFfvkW0wtay0FuOw-164" value="" style="shape=tableRow;horizontal=0;startSize=0;swimlaneHead=0;swimlaneBody=0;fillColor=none;collapsible=0;dropTarget=0;points=[[0,0.5],[1,0.5]];portConstraint=eastwest;top=0;left=0;right=0;bottom=0;fontSize=20;" vertex="1" parent="ZlFfbFfvkW0wtay0FuOw-160">
          <mxGeometry y="60" width="207.5" height="30" as="geometry" />
        </mxCell>
        <mxCell id="ZlFfbFfvkW0wtay0FuOw-165" value="" style="shape=partialRectangle;connectable=0;fillColor=none;top=0;left=0;bottom=0;right=0;editable=1;overflow=hidden;whiteSpace=wrap;html=1;fontSize=20;" vertex="1" parent="ZlFfbFfvkW0wtay0FuOw-164">
          <mxGeometry width="40" height="30" as="geometry">
            <mxRectangle width="40" height="30" as="alternateBounds" />
          </mxGeometry>
        </mxCell>
        <mxCell id="ZlFfbFfvkW0wtay0FuOw-166" value="State" style="shape=partialRectangle;connectable=0;fillColor=none;top=0;left=0;bottom=0;right=0;align=left;spacingLeft=6;overflow=hidden;whiteSpace=wrap;html=1;fontSize=20;" vertex="1" parent="ZlFfbFfvkW0wtay0FuOw-164">
          <mxGeometry x="40" width="167.5" height="30" as="geometry">
            <mxRectangle width="167.5" height="30" as="alternateBounds" />
          </mxGeometry>
        </mxCell>
        <mxCell id="ZlFfbFfvkW0wtay0FuOw-167" value="" style="shape=tableRow;horizontal=0;startSize=0;swimlaneHead=0;swimlaneBody=0;fillColor=none;collapsible=0;dropTarget=0;points=[[0,0.5],[1,0.5]];portConstraint=eastwest;top=0;left=0;right=0;bottom=0;fontSize=20;" vertex="1" parent="ZlFfbFfvkW0wtay0FuOw-160">
          <mxGeometry y="90" width="207.5" height="30" as="geometry" />
        </mxCell>
        <mxCell id="ZlFfbFfvkW0wtay0FuOw-168" value="" style="shape=partialRectangle;connectable=0;fillColor=none;top=0;left=0;bottom=0;right=0;editable=1;overflow=hidden;whiteSpace=wrap;html=1;fontSize=20;" vertex="1" parent="ZlFfbFfvkW0wtay0FuOw-167">
          <mxGeometry width="40" height="30" as="geometry">
            <mxRectangle width="40" height="30" as="alternateBounds" />
          </mxGeometry>
        </mxCell>
        <mxCell id="ZlFfbFfvkW0wtay0FuOw-169" value="Region" style="shape=partialRectangle;connectable=0;fillColor=none;top=0;left=0;bottom=0;right=0;align=left;spacingLeft=6;overflow=hidden;whiteSpace=wrap;html=1;fontSize=20;" vertex="1" parent="ZlFfbFfvkW0wtay0FuOw-167">
          <mxGeometry x="40" width="167.5" height="30" as="geometry">
            <mxRectangle width="167.5" height="30" as="alternateBounds" />
          </mxGeometry>
        </mxCell>
        <mxCell id="ZlFfbFfvkW0wtay0FuOw-170" value="Products" style="shape=table;startSize=30;container=1;collapsible=1;childLayout=tableLayout;fixedRows=1;rowLines=0;fontStyle=1;align=center;resizeLast=1;html=1;fontSize=20;rounded=1;fillColor=#6d8764;fontColor=#ffffff;strokeColor=#3A5431;" vertex="1" parent="1">
          <mxGeometry x="-827" y="277" width="231" height="90" as="geometry" />
        </mxCell>
        <mxCell id="ZlFfbFfvkW0wtay0FuOw-171" value="" style="shape=tableRow;horizontal=0;startSize=0;swimlaneHead=0;swimlaneBody=0;fillColor=none;collapsible=0;dropTarget=0;points=[[0,0.5],[1,0.5]];portConstraint=eastwest;top=0;left=0;right=0;bottom=1;fontSize=20;" vertex="1" parent="ZlFfbFfvkW0wtay0FuOw-170">
          <mxGeometry y="30" width="231" height="30" as="geometry" />
        </mxCell>
        <mxCell id="ZlFfbFfvkW0wtay0FuOw-172" value="PK" style="shape=partialRectangle;connectable=0;fillColor=none;top=0;left=0;bottom=0;right=0;fontStyle=1;overflow=hidden;whiteSpace=wrap;html=1;fontSize=20;" vertex="1" parent="ZlFfbFfvkW0wtay0FuOw-171">
          <mxGeometry width="40" height="30" as="geometry">
            <mxRectangle width="40" height="30" as="alternateBounds" />
          </mxGeometry>
        </mxCell>
        <mxCell id="ZlFfbFfvkW0wtay0FuOw-173" value="Index" style="shape=partialRectangle;connectable=0;fillColor=none;top=0;left=0;bottom=0;right=0;align=left;spacingLeft=6;fontStyle=5;overflow=hidden;whiteSpace=wrap;html=1;fontSize=20;" vertex="1" parent="ZlFfbFfvkW0wtay0FuOw-171">
          <mxGeometry x="40" width="191" height="30" as="geometry">
            <mxRectangle width="191" height="30" as="alternateBounds" />
          </mxGeometry>
        </mxCell>
        <mxCell id="ZlFfbFfvkW0wtay0FuOw-174" value="" style="shape=tableRow;horizontal=0;startSize=0;swimlaneHead=0;swimlaneBody=0;fillColor=none;collapsible=0;dropTarget=0;points=[[0,0.5],[1,0.5]];portConstraint=eastwest;top=0;left=0;right=0;bottom=0;fontSize=20;" vertex="1" parent="ZlFfbFfvkW0wtay0FuOw-170">
          <mxGeometry y="60" width="231" height="30" as="geometry" />
        </mxCell>
        <mxCell id="ZlFfbFfvkW0wtay0FuOw-175" value="&lt;b&gt;FK&lt;/b&gt;" style="shape=partialRectangle;connectable=0;fillColor=none;top=0;left=0;bottom=0;right=0;editable=1;overflow=hidden;whiteSpace=wrap;html=1;fontSize=20;" vertex="1" parent="ZlFfbFfvkW0wtay0FuOw-174">
          <mxGeometry width="40" height="30" as="geometry">
            <mxRectangle width="40" height="30" as="alternateBounds" />
          </mxGeometry>
        </mxCell>
        <mxCell id="ZlFfbFfvkW0wtay0FuOw-176" value="Product Name" style="shape=partialRectangle;connectable=0;fillColor=none;top=0;left=0;bottom=0;right=0;align=left;spacingLeft=6;overflow=hidden;whiteSpace=wrap;html=1;fontSize=20;" vertex="1" parent="ZlFfbFfvkW0wtay0FuOw-174">
          <mxGeometry x="40" width="191" height="30" as="geometry">
            <mxRectangle width="191" height="30" as="alternateBounds" />
          </mxGeometry>
        </mxCell>
        <mxCell id="ZlFfbFfvkW0wtay0FuOw-177" value="2024 Budgets" style="shape=table;startSize=30;container=1;collapsible=1;childLayout=tableLayout;fixedRows=1;rowLines=0;fontStyle=1;align=center;resizeLast=1;html=1;fontSize=20;rounded=1;fillColor=#6d8764;fontColor=#ffffff;strokeColor=#3A5431;" vertex="1" parent="1">
          <mxGeometry x="-384.75" y="511" width="236.5" height="90" as="geometry" />
        </mxCell>
        <mxCell id="ZlFfbFfvkW0wtay0FuOw-178" value="" style="shape=tableRow;horizontal=0;startSize=0;swimlaneHead=0;swimlaneBody=0;fillColor=none;collapsible=0;dropTarget=0;points=[[0,0.5],[1,0.5]];portConstraint=eastwest;top=0;left=0;right=0;bottom=1;fontSize=20;" vertex="1" parent="ZlFfbFfvkW0wtay0FuOw-177">
          <mxGeometry y="30" width="236.5" height="30" as="geometry" />
        </mxCell>
        <mxCell id="ZlFfbFfvkW0wtay0FuOw-179" value="PK" style="shape=partialRectangle;connectable=0;fillColor=none;top=0;left=0;bottom=0;right=0;fontStyle=1;overflow=hidden;whiteSpace=wrap;html=1;fontSize=20;" vertex="1" parent="ZlFfbFfvkW0wtay0FuOw-178">
          <mxGeometry width="40" height="30" as="geometry">
            <mxRectangle width="40" height="30" as="alternateBounds" />
          </mxGeometry>
        </mxCell>
        <mxCell id="ZlFfbFfvkW0wtay0FuOw-180" value="Product Name" style="shape=partialRectangle;connectable=0;fillColor=none;top=0;left=0;bottom=0;right=0;align=left;spacingLeft=6;fontStyle=5;overflow=hidden;whiteSpace=wrap;html=1;fontSize=20;" vertex="1" parent="ZlFfbFfvkW0wtay0FuOw-178">
          <mxGeometry x="40" width="196.5" height="30" as="geometry">
            <mxRectangle width="196.5" height="30" as="alternateBounds" />
          </mxGeometry>
        </mxCell>
        <mxCell id="ZlFfbFfvkW0wtay0FuOw-181" value="" style="shape=tableRow;horizontal=0;startSize=0;swimlaneHead=0;swimlaneBody=0;fillColor=none;collapsible=0;dropTarget=0;points=[[0,0.5],[1,0.5]];portConstraint=eastwest;top=0;left=0;right=0;bottom=0;fontSize=20;" vertex="1" parent="ZlFfbFfvkW0wtay0FuOw-177">
          <mxGeometry y="60" width="236.5" height="30" as="geometry" />
        </mxCell>
        <mxCell id="ZlFfbFfvkW0wtay0FuOw-182" value="" style="shape=partialRectangle;connectable=0;fillColor=none;top=0;left=0;bottom=0;right=0;editable=1;overflow=hidden;whiteSpace=wrap;html=1;fontSize=20;" vertex="1" parent="ZlFfbFfvkW0wtay0FuOw-181">
          <mxGeometry width="40" height="30" as="geometry">
            <mxRectangle width="40" height="30" as="alternateBounds" />
          </mxGeometry>
        </mxCell>
        <mxCell id="ZlFfbFfvkW0wtay0FuOw-183" value="&lt;span style=&quot;font-weight: 700; text-align: center; text-wrap-mode: nowrap;&quot;&gt;2024 Budgets&lt;/span&gt;" style="shape=partialRectangle;connectable=0;fillColor=none;top=0;left=0;bottom=0;right=0;align=left;spacingLeft=6;overflow=hidden;whiteSpace=wrap;html=1;fontSize=20;" vertex="1" parent="ZlFfbFfvkW0wtay0FuOw-181">
          <mxGeometry x="40" width="196.5" height="30" as="geometry">
            <mxRectangle width="196.5" height="30" as="alternateBounds" />
          </mxGeometry>
        </mxCell>
        <mxCell id="ZlFfbFfvkW0wtay0FuOw-185" value="" style="edgeStyle=entityRelationEdgeStyle;fontSize=12;html=1;endArrow=ERzeroToMany;startArrow=ERmandOne;rounded=0;entryX=1;entryY=0.5;entryDx=0;entryDy=0;exitX=0;exitY=0.5;exitDx=0;exitDy=0;" edge="1" parent="1" source="ZlFfbFfvkW0wtay0FuOw-69" target="ZlFfbFfvkW0wtay0FuOw-12">
          <mxGeometry width="100" height="100" relative="1" as="geometry">
            <mxPoint x="-30" y="-84" as="sourcePoint" />
            <mxPoint y="-19" as="targetPoint" />
          </mxGeometry>
        </mxCell>
        <mxCell id="ZlFfbFfvkW0wtay0FuOw-186" value="" style="edgeStyle=entityRelationEdgeStyle;fontSize=12;html=1;endArrow=ERzeroToMany;startArrow=ERmandOne;rounded=0;exitX=0;exitY=0.5;exitDx=0;exitDy=0;" edge="1" parent="1" source="ZlFfbFfvkW0wtay0FuOw-115" target="ZlFfbFfvkW0wtay0FuOw-50">
          <mxGeometry width="100" height="100" relative="1" as="geometry">
            <mxPoint x="-58" y="154" as="sourcePoint" />
            <mxPoint x="-198" y="251" as="targetPoint" />
          </mxGeometry>
        </mxCell>
        <mxCell id="ZlFfbFfvkW0wtay0FuOw-187" value="" style="edgeStyle=entityRelationEdgeStyle;fontSize=12;html=1;endArrow=ERzeroToMany;startArrow=ERmandOne;rounded=0;exitX=1;exitY=0.5;exitDx=0;exitDy=0;" edge="1" parent="1" source="ZlFfbFfvkW0wtay0FuOw-161" target="ZlFfbFfvkW0wtay0FuOw-124">
          <mxGeometry width="100" height="100" relative="1" as="geometry">
            <mxPoint x="-8" y="586" as="sourcePoint" />
            <mxPoint x="-170" y="515" as="targetPoint" />
          </mxGeometry>
        </mxCell>
        <mxCell id="ZlFfbFfvkW0wtay0FuOw-188" value="" style="edgeStyle=entityRelationEdgeStyle;fontSize=12;html=1;endArrow=ERzeroToMany;startArrow=ERmandOne;rounded=0;exitX=1;exitY=0.5;exitDx=0;exitDy=0;entryX=0;entryY=0.5;entryDx=0;entryDy=0;" edge="1" parent="1" source="ZlFfbFfvkW0wtay0FuOw-171" target="ZlFfbFfvkW0wtay0FuOw-53">
          <mxGeometry width="100" height="100" relative="1" as="geometry">
            <mxPoint x="-550" y="262" as="sourcePoint" />
            <mxPoint x="-388" y="143" as="targetPoint" />
          </mxGeometry>
        </mxCell>
        <mxCell id="ZlFfbFfvkW0wtay0FuOw-190" value="" style="edgeStyle=entityRelationEdgeStyle;fontSize=12;html=1;endArrow=ERzeroToOne;startArrow=ERmandOne;rounded=0;" edge="1" parent="1" source="ZlFfbFfvkW0wtay0FuOw-178" target="ZlFfbFfvkW0wtay0FuOw-174">
          <mxGeometry width="100" height="100" relative="1" as="geometry">
            <mxPoint x="-948" y="286" as="sourcePoint" />
            <mxPoint x="-829" y="185" as="targetPoint" />
            <Array as="points">
              <mxPoint x="-944" y="-117" />
            </Array>
          </mxGeometry>
        </mxCell>
        <mxCell id="ZlFfbFfvkW0wtay0FuOw-192" value="&lt;font style=&quot;font-size: 47px;&quot;&gt;&lt;b style=&quot;&quot;&gt;Entity Relation Diagram&lt;/b&gt;&lt;/font&gt;" style="text;html=1;align=center;verticalAlign=middle;whiteSpace=wrap;rounded=0;fontStyle=0" vertex="1" parent="1">
          <mxGeometry x="-827" y="-231" width="551.25" height="57" as="geometry" />
        </mxCell>
        <mxCell id="ZlFfbFfvkW0wtay0FuOw-193" value="&lt;font style=&quot;font-size: 22px;&quot;&gt;&lt;i&gt;(How Tables are Connected)&lt;/i&gt;&lt;/font&gt;" style="text;html=1;align=center;verticalAlign=middle;whiteSpace=wrap;rounded=0;" vertex="1" parent="1">
          <mxGeometry x="-279.75" y="-211.5" width="286" height="30" as="geometry" />
        </mxCell>
      </root>
    </mxGraphModel>
  </diagram>
</mxfile>
